<svg width="420px" height="98px" viewBox="0 0 420 98" version="1.1" xmlns="http://www.w3.org/2000/svg" xmlns:xlink="http://www.w3.org/1999/xlink">
    <g id="Page-1" stroke="none" stroke-width="1" fill="none" fill-rule="evenodd">
        <g id="A4" transform="translate(-88.000000, -558.000000)">
            <g id="logo" transform="translate(88.000000, 557.000000)">
                <path d="M108.135795,35.18 L108.135795,46.7 L126.882376,46.7 L126.882376,53.24 L108.135795,53.24 L108.135795,70.52 L101,70.52 L101,28.58 L129.180344,28.58 L129.119871,35.18 L108.135795,35.18 Z M143.618955,70.52 L136.845997,70.52 L136.845997,26 L143.618955,26 L143.618955,70.52 Z M161.202154,62.12 C163.137295,64.0400097 165.576341,65 168.519368,65 C171.462394,65 173.891362,64.0300097 175.806345,62.09 C177.721328,60.1499903 178.678805,57.6400154 178.678805,54.56 C178.678805,51.4799846 177.721328,48.9700097 175.806345,47.03 C173.891362,45.0899903 171.462394,44.12 168.519368,44.12 C165.576341,44.12 163.147373,45.0899903 161.23239,47.03 C159.317407,48.9700097 158.35993,51.4799846 158.35993,54.56 C158.35993,57.6400154 159.307329,60.1599903 161.202154,62.12 Z M180.613936,66.26 C177.388702,69.420016 173.357219,71 168.519368,71 C163.681516,71 159.650034,69.410016 156.424799,66.23 C153.199565,63.049984 151.586972,59.1600229 151.586972,54.56 C151.586972,49.959977 153.199565,46.0700159 156.424799,42.89 C159.650034,39.7099841 163.681516,38.12 168.519368,38.12 C173.357219,38.12 177.388702,39.7099841 180.613936,42.89 C183.83917,46.0700159 185.451763,49.959977 185.451763,54.56 C185.451763,59.1600229 183.83917,63.059984 180.613936,66.26 Z M208.054208,70.52 L200.313684,70.52 L189.186681,38.6 L196.201531,38.6 L204.183946,62.72 L212.166361,38.6 L219.181211,38.6 L227.163626,62.72 L235.146041,38.6 L242.160891,38.6 L231.033888,70.52 L223.293364,70.52 L215.673786,48.68 L208.054208,70.52 Z M265.670428,38.12 C269.984179,38.12 273.672985,39.5999852 276.736958,42.56 C279.800931,45.5200148 281.332894,49.4599754 281.332894,54.38 C281.332894,59.3000246 279.811009,63.2999846 276.767194,66.38 C273.72338,69.4600154 270.175675,71 266.123974,71 C262.072274,71 258.433861,69.2400177 255.208626,65.72 L255.208626,70.52 L248.435668,70.52 L248.435668,26 L255.208626,26 L255.208626,44.18 C257.869445,40.1399798 261.356677,38.12 265.670428,38.12 Z M255.087681,54.62 C255.087681,57.6600152 256.014922,60.1499903 257.869431,62.09 C259.723941,64.0300097 261.981571,65 264.64239,65 C267.303208,65 269.621311,64.0400097 271.596766,62.12 C273.572222,60.1999903 274.559936,57.7100153 274.559936,54.65 C274.559936,51.5899847 273.59238,49.0500101 271.657239,47.03 C269.722099,45.0099899 267.403996,44 264.702863,44 C262.001729,44 259.723941,45.0099899 257.869431,47.03 C256.014922,49.0500101 255.087681,51.5799848 255.087681,54.62 Z M296.860016,62.12 C298.795157,64.0400097 301.234203,65 304.17723,65 C307.120257,65 309.549224,64.0300097 311.464207,62.09 C313.37919,60.1499903 314.336667,57.6400154 314.336667,54.56 C314.336667,51.4799846 313.37919,48.9700097 311.464207,47.03 C309.549224,45.0899903 307.120257,44.12 304.17723,44.12 C301.234203,44.12 298.805236,45.0899903 296.890252,47.03 C294.975269,48.9700097 294.017793,51.4799846 294.017793,54.56 C294.017793,57.6400154 294.965191,60.1599903 296.860016,62.12 Z M316.271798,66.26 C313.046564,69.420016 309.015081,71 304.17723,71 C299.339378,71 295.307896,69.410016 292.082662,66.23 C288.857427,63.049984 287.244834,59.1600229 287.244834,54.56 C287.244834,49.959977 288.857427,46.0700159 292.082662,42.89 C295.307896,39.7099841 299.339378,38.12 304.17723,38.12 C309.015081,38.12 313.046564,39.7099841 316.271798,42.89 C319.497033,46.0700159 321.109626,49.959977 321.109626,54.56 C321.109626,59.1600229 319.497033,63.059984 316.271798,66.26 Z M355.141437,70.52 L348.973207,70.52 L348.973207,66.26 C346.312389,69.420016 342.744527,71 338.269514,71 C334.923334,71 332.15169,70.0600091 329.954499,68.18 C327.757308,66.2999909 326.658729,63.7900154 326.658729,60.65 C326.658729,57.5099843 327.827859,55.1600078 330.166154,53.6 C332.504448,52.0399922 335.669162,51.26 339.66039,51.26 L348.428952,51.26 L348.428952,50.06 C348.428952,45.8199788 346.050377,43.7 341.293157,43.7 C338.309815,43.7 335.205573,44.7799892 331.980339,46.94 L328.956697,42.74 C332.867293,39.6599846 337.301924,38.12 342.260722,38.12 C346.050372,38.12 349.144535,39.0699905 351.543303,40.97 C353.942071,42.8700095 355.141437,45.8599796 355.141437,49.94 L355.141437,70.52 Z M348.368479,58.64 L348.368479,55.94 L340.748901,55.94 C335.870734,55.94 333.431687,57.4599848 333.431687,60.5 C333.431687,62.060008 334.036409,63.249996 335.245872,64.07 C336.455335,64.890004 338.138479,65.3 340.295355,65.3 C342.45223,65.3 344.336948,64.7000057 345.949565,63.5 C347.562183,62.2999943 348.368479,60.6800103 348.368479,58.64 Z M381.735089,44.9 C378.388909,44.9 375.869232,45.9799892 374.175984,48.14 C372.482736,50.3000108 371.636125,53.1999818 371.636125,56.84 L371.636125,70.52 L364.863167,70.52 L364.863167,38.6 L371.636125,38.6 L371.636125,45.02 C372.724641,43.01999 374.206211,41.3800064 376.080879,40.1 C377.955546,38.8199936 379.941051,38.1600002 382.037454,38.12 L382.097926,44.9 L381.735089,44.9 Z M402.281457,71 C398.209599,71 394.661894,69.4800154 391.638237,66.44 C388.61458,63.3999846 387.102774,59.4000246 387.102774,54.44 C387.102774,49.4799752 388.654895,45.5200148 391.759183,42.56 C394.863471,39.5999852 398.562356,38.12 402.855949,38.12 C407.149542,38.12 410.606539,39.919982 413.227042,43.52 L413.227042,26 L420,26 L420,70.52 L413.227042,70.52 L413.227042,65.72 C410.727485,69.2400177 407.078994,71 402.281457,71 Z M393.875732,54.74 C393.875732,57.7800152 394.863446,60.2599903 396.838902,62.18 C398.814358,64.1000097 401.13246,65.06 403.793278,65.06 C406.454097,65.06 408.711727,64.0900097 410.566237,62.15 C412.420746,60.2099903 413.347987,57.7200152 413.347987,54.68 C413.347987,51.6399848 412.420746,49.1000102 410.566237,47.06 C408.711727,45.0199898 406.433939,44 403.732806,44 C401.031672,44 398.713569,45.0199898 396.778429,47.06 C394.843288,49.1000102 393.875732,51.6599846 393.875732,54.74 Z" id="Flowboard" fill="#000000" fill-rule="nonzero"></path>
                <g id="Group">
                    <polygon id="Rectangle-5" fill="#72DAFF" transform="translate(48.928750, 25.433242) rotate(45.000000) translate(-48.928750, -25.433242) " points="31.7357678 8.24025924 66.2725003 8.0894917 66.1217327 42.6262242 31.5850003 42.7769917"></polygon>
                    <polygon id="Rectangle-5" fill="#30C1F4" points="0 1 49.140625 1 0 49.7134503"></polygon>
                    <polygon id="Rectangle-5" fill="#046CDF" transform="translate(24.570312, 74.070175) scale(-1, 1) rotate(-180.000000) translate(-24.570312, -74.070175) " points="0 49.7134503 49.140625 49.7134503 0 98.4269006"></polygon>
                    <polygon id="Rectangle-5" fill="#0991E9" transform="translate(48.928750, 74.146692) rotate(45.000000) translate(-48.928750, -74.146692) " points="31.7357678 56.9537095 66.2725003 56.802942 66.1217327 91.3396744 31.5850003 91.490442"></polygon>
                </g>
            </g>
        </g>
    </g>
</svg>